<svg viewBox="0 0 104 52" fill="none" xmlns="http://www.w3.org/2000/svg">
<path d="M103.849 22.0398V18.7955H101.57V16.668H97.8545V18.7955H96.4707V22.0398H97.8545V29.7509C97.8545 32.2515 99.1787 33.5018 101.828 33.5018C102.208 33.5018 102.556 33.4864 102.872 33.4552C103.188 33.424 103.428 33.3952 103.591 33.3688L103.849 33.3155V30.2575H102.995C102.471 30.2575 102.102 30.1393 101.89 29.9031C101.677 29.6669 101.571 29.2775 101.571 28.7349V22.0403H103.849L103.849 22.0398Z" fill="#7029D9"/>
<path d="M85.2549 24.5123C85.3543 23.7124 85.6933 23.0604 86.2719 22.5562C86.8504 22.0521 87.6009 21.8 88.5233 21.8C89.509 21.8 90.3089 22.0545 90.924 22.5624C91.539 23.0709 91.8872 23.721 91.9688 24.5123H85.2554H85.2549ZM88.5641 18.5556C87.1534 18.5556 85.8902 18.8817 84.7733 19.5332C83.6565 20.1848 82.7908 21.087 82.1763 22.2388C81.5612 23.3912 81.2539 24.6856 81.2539 26.1213C81.2539 28.4082 81.9525 30.2279 83.3492 31.5795C84.746 32.9316 86.584 33.6072 88.8622 33.6072C89.7212 33.6072 90.5187 33.4982 91.2562 33.2807C91.9928 33.0632 92.6213 32.765 93.1413 32.3871C93.6608 32.0097 94.0996 31.6093 94.4569 31.1868C94.8141 30.7647 95.1147 30.3091 95.3586 29.8198L92.6189 28.1916C91.6783 29.6393 90.4261 30.3628 88.8618 30.3628C87.804 30.3628 86.9498 30.0872 86.2983 29.5351C85.6477 28.9834 85.2722 28.2267 85.1728 27.2645H95.7787C95.8147 26.8477 95.833 26.3517 95.833 25.7751C95.833 23.5856 95.1771 21.835 93.8663 20.5228C92.555 19.211 90.7876 18.5547 88.5636 18.5547" fill="#7029D9"/>
<path d="M81.9187 18.7949H77.5652L73.144 24.5124V13.4629H69.4277V33.3682H73.144V26.9458L77.6195 33.3682H82.1222L76.5617 25.5231L81.9187 18.7949Z" fill="#7029D9"/>
<path d="M63.0122 21.8C64.1968 21.8 65.2137 22.2033 66.0636 23.01L68.2069 20.4786C66.9134 19.1971 65.1734 18.5557 62.9849 18.5557C61.5291 18.5557 60.2135 18.8903 59.0386 19.5587C57.8627 20.2275 56.9499 21.1374 56.2989 22.2888C55.6478 23.4402 55.3223 24.7154 55.3223 26.115C55.3223 27.1622 55.5057 28.1446 55.8715 29.0626C56.2374 29.9812 56.7483 30.7748 57.4037 31.4446C58.0591 32.1144 58.8705 32.6421 59.8385 33.0281C60.806 33.4137 61.8637 33.6067 63.0118 33.6067C64.1694 33.6067 65.1911 33.4094 66.077 33.0157C66.9629 32.6219 67.6725 32.149 68.2064 31.5968L66.1586 29.1524C65.182 29.9591 64.142 30.3624 63.0391 30.3624C61.9266 30.3624 60.9822 29.9701 60.2044 29.186C59.4265 28.402 59.0381 27.3692 59.0381 26.0872C59.0381 24.8417 59.3992 23.8156 60.1227 23.009C60.8458 22.2024 61.809 21.799 63.0113 21.799" fill="#7029D9"/>
<path d="M53.7104 18.7949H49.9941V33.3678H53.7104V18.7949Z" fill="#7029D9"/>
<path d="M51.8515 13.5166C51.2364 13.5166 50.7121 13.7317 50.278 14.1614C49.844 14.5916 49.627 15.1121 49.627 15.7238C49.627 16.3178 49.844 16.8253 50.278 17.2464C50.7121 17.6674 51.2359 17.8777 51.8515 17.8777C52.4752 17.8777 53.0019 17.6698 53.4316 17.2531C53.8609 16.8363 54.076 16.3269 54.076 15.7238C54.076 15.1121 53.8609 14.5916 53.4316 14.1614C53.0019 13.7317 52.4752 13.5166 51.8515 13.5166Z" fill="#7029D9"/>
<path d="M43.5513 29.1534C42.8099 29.96 41.8376 30.3633 40.6354 30.3633C39.4508 30.3633 38.479 29.9624 37.7194 29.1601C36.9599 28.3583 36.5805 27.3341 36.5805 26.0882C36.5805 24.834 36.9512 23.8051 37.6926 23.0032C38.4339 22.2009 39.4057 21.8 40.6085 21.8C41.7925 21.8 42.7653 22.2057 43.5244 23.0167C44.284 23.8276 44.6633 24.8513 44.6633 26.0882C44.6633 27.325 44.2926 28.3467 43.5513 29.1534ZM44.6902 19.5323C43.5033 18.8812 42.1425 18.5557 40.608 18.5557C38.3748 18.5557 36.5258 19.2668 35.0609 20.6885C33.6032 22.1034 32.8714 23.9016 32.8642 26.0819H32.8633V37.0695H36.5796V32.6661C37.7295 33.2922 39.071 33.6072 40.6075 33.6072C42.1056 33.6072 43.4485 33.2769 44.6349 32.6157C45.8219 31.9545 46.7428 31.0519 47.3972 29.9072C48.0512 28.7625 48.3786 27.4806 48.3786 26.0613C48.3786 24.642 48.0603 23.3537 47.4246 22.2153C46.7879 21.0774 45.8766 20.1829 44.6897 19.5318" fill="#7029D9"/>
<path d="M11.7383 23.1096L21.7502 17.334V28.892L11.7383 34.6691V23.1096Z" fill="#A97FE8"/>
<path d="M22.1758 16.5991L12.1648 10.8201C11.9031 10.6693 11.5785 10.6693 11.3164 10.8201L1.31068 16.5991C1.04901 16.7508 0.886719 17.0308 0.886719 17.3337V34.6679C0.886719 34.9708 1.04901 35.2508 1.31068 35.4025L11.3164 41.1805C11.4475 41.2559 11.5949 41.2938 11.7404 41.2938C11.8858 41.2938 12.0337 41.2559 12.1643 41.1805C12.426 41.0288 12.5883 40.7489 12.5883 40.4459V35.159L22.1753 29.6264C22.437 29.4746 22.5993 29.1947 22.5993 28.8917V17.3337C22.5993 17.0308 22.4375 16.7508 22.1758 16.5991ZM11.7408 12.5337L20.055 17.3332L11.7413 22.1299L3.43196 17.3332L11.7413 12.5333L11.7408 12.5337ZM10.8924 38.9767L2.58306 34.1781V18.803L10.8924 23.5996V38.9767ZM12.5888 33.201V23.5996L20.9034 18.8025V28.4025L12.5888 33.201Z" fill="#7029D9"/>
</svg>
